<svg id="Layer_1" data-name="Layer 1" xmlns="http://www.w3.org/2000/svg" viewBox="0 0 80 80"><defs><style>.cls-1{fill:none;stroke:#161c21;stroke-linecap:round;stroke-linejoin:round;stroke-width:4px;}</style></defs><path id="handset" class="cls-1" d="M24.9,47.42l.19.32c.06.11.11.21.18.32C36.48,67.63,55.85,79.15,59.43,73.13L64,64.53a2.59,2.59,0,0,0-.16-2.46L63.76,62c-.64-1.23-1.21-1.27-4.53-3.46-1.71-1.3-3.54-2.7-4.75-3.76a2.86,2.86,0,0,0-3.81-.15L48.8,56.49a3.42,3.42,0,0,1-2.41,1c-2.68-.05-7.82-7.3-10.68-11.77-.81-1.27-1.45-2.33-1.83-3s-1-1.74-1.64-3.08c-2.41-4.73-6.07-12.83-4.75-15.17a3.35,3.35,0,0,1,2-1.59l2.54-.68a2.85,2.85,0,0,0,1.8-3.36c-.3-1.58-.59-3.87-.84-6-.21-4,0-4.49-.7-5.66a.14.14,0,0,0,0-.07,2.55,2.55,0,0,0-2-1.38l-9.71-.44C13.54,5.32,13.7,27.86,24.9,47.42Z"/></svg>