<svg id="Layer_1" data-name="Layer 1" xmlns="http://www.w3.org/2000/svg" viewBox="0 0 40 40"><defs><style>.cls-1{fill:#ffe05d;}</style></defs><path class="cls-1" d="M15.47,7.8a4.32,4.32,0,0,1,1.78,1.88,6.44,6.44,0,0,1,.64,3v7.57H14.63V13.11a3.35,3.35,0,0,0-.76-2.36,2.73,2.73,0,0,0-2.1-.82,2.79,2.79,0,0,0-2.13.82,3.31,3.31,0,0,0-.78,2.36v7.13H5.6V3H8.86V9a4.27,4.27,0,0,1,1.68-1.32,5.67,5.67,0,0,1,2.33-.47A5.19,5.19,0,0,1,15.47,7.8Z"/><path class="cls-1" d="M26,7.73a5.23,5.23,0,0,1,2.53-.6,5.58,5.58,0,0,1,3,.82,5.72,5.72,0,0,1,2.12,2.31,7.44,7.44,0,0,1,.78,3.48,7.62,7.62,0,0,1-.78,3.51,5.93,5.93,0,0,1-2.12,2.36,5.51,5.51,0,0,1-3,.84,5.24,5.24,0,0,1-4.26-2.05v8H21v-19h3.26V9.2A4.93,4.93,0,0,1,26,7.73Zm4.61,4a3.26,3.26,0,0,0-1.26-1.29,3.32,3.32,0,0,0-4.6,1.32,4.12,4.12,0,0,0-.48,2,4.12,4.12,0,0,0,.48,2,3.28,3.28,0,0,0,2.92,1.76,3.22,3.22,0,0,0,1.68-.46,3.44,3.44,0,0,0,1.26-1.33,4.14,4.14,0,0,0,.48-2A4,4,0,0,0,30.59,11.73Z"/><path class="cls-1" d="M18.88,37A20,20,0,0,1,4,30.36a1.61,1.61,0,0,1,2.38-2.18,16.81,16.81,0,0,0,12.51,5.59,17,17,0,0,0,14.56-8.31,1.61,1.61,0,0,1,2.75,1.68A20.24,20.24,0,0,1,18.88,37Z"/></svg>