<svg id="Layer_1" data-name="Layer 1" xmlns="http://www.w3.org/2000/svg" viewBox="0 0 40 40"><defs><style>.cls-1{fill:#ffe05d;}.cls-2{fill:#161c21;}</style></defs><rect class="cls-1" x="0.57" y="0.57" width="38.86" height="38.86" rx="4.73"/><path class="cls-2" d="M16.37,10.22a3.49,3.49,0,0,1,1.43,1.51,5.19,5.19,0,0,1,.51,2.4v6.06H15.7V14.48a2.67,2.67,0,0,0-.62-1.89,2.18,2.18,0,0,0-1.68-.66,2.21,2.21,0,0,0-1.7.66,2.63,2.63,0,0,0-.63,1.89v5.71H8.46V6.38h2.61v4.76a3.38,3.38,0,0,1,1.35-1.05,4.36,4.36,0,0,1,1.86-.39A4.21,4.21,0,0,1,16.37,10.22Z"/><path class="cls-2" d="M24.79,10.16a4.22,4.22,0,0,1,2-.47,4.45,4.45,0,0,1,4.09,2.51A5.92,5.92,0,0,1,31.54,15a6,6,0,0,1-.63,2.8,4.67,4.67,0,0,1-1.69,1.9,4.52,4.52,0,0,1-2.4.67,4.2,4.2,0,0,1-2-.47,4.51,4.51,0,0,1-1.41-1.17v6.4H20.79V9.85H23.4v1.5A4,4,0,0,1,24.79,10.16Zm3.7,3.21a2.63,2.63,0,0,0-1-1A2.68,2.68,0,0,0,26.13,12a2.58,2.58,0,0,0-1.34.37,2.67,2.67,0,0,0-1,1.05A3.24,3.24,0,0,0,23.4,15a3.28,3.28,0,0,0,.39,1.63,2.62,2.62,0,0,0,2.34,1.41,2.59,2.59,0,0,0,1.35-.37,2.79,2.79,0,0,0,1-1.06A3.4,3.4,0,0,0,28.87,15,3.32,3.32,0,0,0,28.49,13.37Z"/><path class="cls-2" d="M19.1,33.62A16,16,0,0,1,7.17,28.3a1.29,1.29,0,0,1,1.91-1.74A13.48,13.48,0,0,0,19.1,31a13.67,13.67,0,0,0,11.67-6.65A1.29,1.29,0,1,1,33,25.73,16.25,16.25,0,0,1,19.1,33.62Z"/></svg>